<?xml version="1.0" encoding="UTF-8"?>
<!DOCTYPE svg PUBLIC "-//W3C//DTD SVG 1.1//EN" "http://www.w3.org/Graphics/SVG/1.1/DTD/svg11.dtd">
<svg enable-background="new 0 0 2048 2048" version="1.1" viewBox="0 0 2048 2048" xml:space="preserve" xmlns="http://www.w3.org/2000/svg">
	<rect width="2048" height="2048" fill="#EE2E3B"/>
	<g fill="#fff">
			<path d="m699.03 869.26c-1.116 1.227-5.206 5.355-2.279 13.06 2.837 7.437 11.397 7.169 11.397 7.169h79.494l0.217 0.015c1.763 0.136 4.448-2.06 5.694-3.053l2.154-1.678 189.78-193.67s13.776-15.643 34.629-16.012c23.455-0.42 40.198 17.496 40.198 17.496l190.57 193.83h-0.063c1.086 1.654 2.895 2.854 4.963 3.062l0.682 8e-3h80.547s7.689-0.729 10.193-7.908c2.538-7.248-2.333-12.169-2.333-12.169l-285.44-281.99s-14.507-16.167-36.933-15.963c-22.122 0.179-33.272 11.156-35.404 13.267l-288.06 284.54z"/>
			<path d="m1934.8 1115.4c0-2.964-1.159-5.635-3.02-7.655l0.063-0.027-113.75-131.88s-9.02-10.225-18.559-13.988c-12.24-4.822-20.236-4.479-21.641-4.364l-523.5-0.186s-2.649-0.056-4.747-0.845c-2.098-0.793-3.673-2.456-3.673-2.456l-189.52-194.58-0.142 0.103c-2.799-2.387-13.995-11.231-31.692-11.717v-0.041c-0.211 0-0.41 0.018-0.616 0.018-0.212 0-0.407-0.018-0.618-0.018v0.041c-17.697 0.485-28.907 9.33-31.691 11.717l-0.153-0.103-189.52 194.58s-1.593 1.663-3.685 2.456c-2.091 0.789-4.736 0.845-4.736 0.845l-523.5 0.186c-1.404-0.115-9.4-0.458-21.626 4.364-9.559 3.764-18.571 13.988-18.571 13.988l-113.75 131.88 0.052 0.027c-1.85 2.021-3.031 4.691-3.031 7.655 0 5.954 4.611 10.772 10.441 11.234v0.046h0.481c0.13 0 0.27 0.043 0.399 0.043 0.142 0 0.27-0.043 0.412-0.043l726.34-0.022s13.372-0.588 21.95-4.253c6.887-2.954 15.406-11.147 15.406-11.147l97.073-108.79s12.514-17.097 38.326-16.79c25.803-0.308 38.325 16.79 38.325 16.79l97.066 108.79s8.521 8.193 15.393 11.147c8.579 3.665 21.95 4.253 21.95 4.253l726.35 0.022c0.136 0 0.259 0.043 0.412 0.043 0.134 0 0.268-0.043 0.394-0.043h0.475v-0.046c5.836-0.462 10.43-5.28 10.43-11.234z"/>
			<path d="m274.28 1246.9h8.659c11.475 0 17.208 17.319 17.208 51.956v4.272c0 60.135-11.508 96.196-34.529 108.19h-17.319l-38.913-43.295c-6.897 0-17.021 17.319-30.364 51.954l-12.932 4.277c-20.469-6.221-37.789-29.275-51.962-69.164l-4.272-73.554v-17.316l8.662-8.658h8.66c10.269 0 23.244 25.939 38.913 77.826h4.271l13.049-64.899 4.271-4.269h21.704c8.925 4.043 21.891 31.447 38.913 82.21h8.659l4.279-30.364v-43.184c1.796-17.319 6.145-25.98 13.043-25.98z"/>
			<path d="m445.56 1228.7c11.244 4.807 17.391 9.718 18.44 14.736v11.133c0 8.396-31.978 19.452-95.932 33.178l-11.135 14.736v3.706l11.135 3.716c34.413-9.82 60.239-14.731 77.492-14.731l14.729 11.016c0 21.816-30.739 35.354-92.22 40.604l-7.421 11.018v14.847h18.443l70.176-22.155h3.602c4.871 0 9.824 7.385 14.847 22.155 0 14.019-36.927 31.228-110.78 51.62h-11.021l-40.598-44.312v-7.309c0-8.249 3.671-16.874 11.021-25.864l-3.602-70.068c0-17.245 19.683-25.863 59.049-25.863 29.611-14.771 54.204-22.163 73.776-22.163z"/>
			<path d="m586.7 1244.9c7.949 1.651 11.919 12.297 11.919 31.938l-11.919 107.63 55.786-15.97h15.97l11.921 11.914c-23.771 29.248-59.647 43.865-107.63 43.865l-7.985-11.921v-27.889l15.97-83.784v-27.896c-1e-3 -14.24 5.321-23.54 15.969-27.889z"/>
			<path d="m795.67 1247.5c37.261 0 57.426 23.284 60.505 69.841-15.147 71.303-55.487 106.95-121.02 106.95h-4.612c-34.113 0-51.168-21.702-51.168-65.117 0-39.286 29.465-74.976 88.394-107.07l27.896-4.611zm-83.676 134.96l18.555 4.606c58.935-11.545 88.402-33.255 88.402-65.118-9.072-21.745-23.021-32.614-41.839-32.614h-4.725c-28.642 14.772-48.771 42.703-60.393 83.783v9.343z"/>
			<path d="m984.16 1224.7l8.326 16.649c0 37.708-26.315 94.505-78.953 170.39l-16.644 12.479h-4.16c-13.873 0-22.191-30.48-24.964-91.433v-33.288c0-28.038 8.319-43.261 24.964-45.663 11.093 2.772 16.645 8.326 16.645 16.649l-4.16 70.621 4.16 4.16h4.159l45.663-103.91 24.964-16.649z"/>
			<path d="m1132.6 1228.7c11.244 4.807 17.392 9.718 18.442 14.736v11.133c0 8.396-31.979 19.452-95.933 33.178l-11.133 14.736v3.706l11.133 3.716c34.412-9.82 60.24-14.731 77.49-14.731l14.73 11.016c0 21.816-30.739 35.354-92.221 40.604l-7.421 11.018v14.847h18.443l70.176-22.155h3.601c4.871 0 9.824 7.385 14.846 22.155 0 14.019-36.924 31.228-110.78 51.62h-11.024l-40.598-44.312v-7.309c0-8.249 3.672-16.874 11.022-25.864l-3.601-70.068c0-17.245 19.682-25.863 59.048-25.863 29.613-14.771 54.207-22.163 73.777-22.163z"/>
			<path d="m1318 1243.8c14.849 0 28.19 22.726 40.036 68.152 12.218 16.054 21.597 24.074 28.117 24.074v20.018l15.972 48.136-7.985 7.984h-20.019c-15.223-24.065-31.268-36.098-48.137-36.098h-12.032c-13.87 0-31.229 16.04-52.073 48.13h-12.032l-7.985-7.983v-48.138c11.398-10.423 32.766-50.494 64.107-120.22l12.031-4.052zm-7.983 76.144l-4.048 4.043v20.023h12.031l7.984-7.984v-12.039l-15.967-4.043z"/>
			<path d="m1545.6 1228.7c11.244 4.807 17.39 9.718 18.442 14.736v11.133c0 8.396-31.981 19.452-95.934 33.178l-11.134 14.736v3.706l11.134 3.716c34.413-9.82 60.24-14.731 77.491-14.731l14.729 11.016c0 21.816-30.74 35.354-92.22 40.604l-7.42 11.018v14.847h18.442l70.175-22.155h3.603c4.87 0 9.822 7.385 14.846 22.155 0 14.019-36.927 31.228-110.78 51.62h-11.022l-40.598-44.312v-7.309c0-8.249 3.671-16.874 11.022-25.864l-3.603-70.068c0-17.245 19.681-25.863 59.046-25.863 29.616-14.771 54.208-22.163 73.78-22.163z"/>
			<path d="m1704.7 1246.9c32.692 0 49.037 11.317 49.037 33.961v11.362c-8.172 13.194-30.818 29.542-67.932 49.035v3.708c7.126 7.572 24.746 12.639 52.861 15.182l7.532 15.07c-5.171 15.07-15.218 22.608-30.141 22.608l-86.82-15.076c-15.072 0-26.393 13.836-33.966 41.503h-18.895c-5.022 0-7.532-3.784-7.532-11.361l30.141-116.96c0-30.14 16.38-45.216 49.146-45.216l56.569-3.819zm-75.462 67.925l3.713 11.356 60.393-26.428-11.246-11.357h-18.895c-15.292 1e-3 -26.616 8.809-33.965 26.429z"/>
			<path d="m1873.5 1247.5c37.263 0 57.426 23.284 60.503 69.841-15.145 71.303-55.484 106.95-121.01 106.95h-4.613c-34.109 0-51.166-21.702-51.166-65.117 0-39.286 29.465-74.976 88.396-107.07l27.893-4.611zm-83.676 134.96l18.553 4.606c58.937-11.545 88.403-33.255 88.403-65.118-9.072-21.745-23.019-32.614-41.839-32.614h-4.724c-28.644 14.772-48.773 42.703-60.394 83.783v9.343z"/>
	</g>
</svg>